<svg width="643" height="821" viewBox="0 0 643 821" fill="none" xmlns="http://www.w3.org/2000/svg">
<path d="M67.7306 1.00001C37.4816 7.53001 13.3384 32.12 4.33461 61.32C-4.98891 91.57 4.43454 123.32 27.7084 144.52C50.1828 164.97 83.6695 174.62 112.749 163.44C139.95 152.98 163.584 123.15 150.453 93.33C139.361 68.15 106.484 53.43 80.8015 64.42C55.1193 75.41 42.638 106.17 47.3347 132.73C53.2706 166.24 85.808 184.73 115.557 194.1C151.592 205.52 193.573 207.2 223.093 233.48C246.366 254.2 257.778 286.48 255.46 317.31C254.4 332.76 249.505 347.7 241.22 360.78C232.056 374.97 216.417 387.12 199.169 388.78C179.983 390.63 166.192 375.9 164.803 357.41C163.294 337.08 175.606 319.31 187.307 303.88C209.662 274.42 238.272 245.09 275.406 236.01C308.293 228.01 347.846 237.07 365.284 268.4C385.05 303.92 370.98 346.31 350.024 377.65C338.652 394.65 325.132 410.16 311.821 425.65C298.29 441.4 284.64 457.07 271.849 473.46C247.646 504.54 226.53 538.65 217.427 577.39C208.882 613.73 211.431 652.81 231.587 685C250.314 715 280.553 736.17 312.71 749.74C352.882 766.74 396.552 773.42 439.122 781.56L575.668 807.68L641.142 820.2C642.551 820.47 643.141 818.31 641.742 818.03L506.835 792.22C462.946 783.83 418.747 776.4 375.157 766.56C336.354 757.79 297.431 745.02 266.023 719.75C252.112 708.56 239.881 695.13 230.997 679.57C221.46 662.573 216.042 643.574 215.178 624.1C210.831 539.39 273.528 474.48 324.222 414.59C348.366 386.05 373.188 354.27 376.506 315.59C377.955 298.87 375.307 281.39 366.923 266.68C359.199 253.406 347.26 243.1 333.006 237.4C302.248 224.75 267.602 231.62 240.241 249.05C224.951 258.82 211.631 271.4 199.739 285C187.597 298.9 174.896 314.17 167.521 331.22C161.246 345.74 159.817 363.63 169.07 377.29C177.344 389.49 191.994 393.35 205.855 389.86C236.044 382.26 253.481 351.67 257.169 322.61C260.816 293.79 252.392 263.24 233.565 241C209.582 212.71 172.148 205.92 137.922 197.78C105.504 190.08 65.702 177.09 52.4812 142.9C41.9185 115.59 53.2506 79.4 80.7315 66.9C108.492 54.25 146.326 73.9 151.402 104.19C157.498 140.49 117.866 166.29 85.838 165.92C53.8102 165.55 22.492 144.92 9.29117 115.7C-4.4293 85.28 5.20401 49.28 27.9182 25.94C38.8444 14.5422 52.8937 6.63071 68.3002 3.20001C69.7292 2.89001 69.1096 0.730009 67.7306 1.00001Z" fill="#D1ECFD"/>
</svg>
